# 3ds Max Wavefront OBJ Exporter v0.97b - (c)2007 guruware
# File Created: 19.10.2017 13:02:57

#
# object Stone_3_AO
#

v  -0.216188 0.060361 -0.461004
v  0.322597 0.041994 -0.366046
v  -0.327695 0.441531 -0.261561
v  -0.256735 0.575269 0.325406
v  0.426465 0.482130 -0.296708
v  0.222777 0.658536 0.278610
v  -0.067353 0.060729 -0.538096
v  -0.421318 0.015412 0.201032
v  -0.492117 0.024855 0.095019
v  0.371302 0.047292 -0.194200
v  0.374926 0.017487 0.231826
v  0.049336 0.012128 0.399697
v  -0.119825 0.592765 -0.274436
v  -0.007765 0.426241 -0.394006
v  -0.297773 0.788424 0.258712
v  -0.478945 0.581213 0.142203
v  0.104361 0.718845 -0.246106
v  0.456663 0.470106 -0.116470
v  -0.141408 0.677036 0.463330
# 19 vertices

vn -0.400497 0.808862 -0.430517
vn -0.400497 0.808862 -0.430517
vn -0.400497 0.808862 -0.430517
vn -0.916236 0.001764 -0.400634
vn -0.895711 0.058588 -0.440759
vn -0.914366 0.007553 -0.404818
vn -0.942670 -0.111107 -0.314687
vn -0.451040 -0.157460 0.878504
vn -0.382488 -0.196135 0.902903
vn -0.588629 -0.070247 0.805345
vn -0.799278 0.103454 0.591990
vn 0.977216 -0.013476 0.211820
vn 0.980761 -0.193977 -0.021913
vn 0.961575 0.035809 0.272196
vn 0.881635 0.177331 0.437347
vn 0.299331 0.189306 -0.935181
vn 0.398801 0.279317 -0.873464
vn 0.302768 0.192387 -0.933445
vn 0.204545 0.105045 -0.973204
vn -0.022861 -0.998542 -0.048904
vn -0.022861 -0.998542 -0.048904
vn -0.022861 -0.998542 -0.048904
vn 0.042312 -0.992272 -0.116643
vn 0.042312 -0.992272 -0.116643
vn 0.042312 -0.992272 -0.116643
vn 0.108423 -0.994105 -0.000081
vn 0.108423 -0.994105 -0.000081
vn 0.108423 -0.994105 -0.000081
vn -0.336373 0.389342 -0.857477
vn -0.336373 0.389342 -0.857477
vn -0.336373 0.389342 -0.857477
vn -0.629721 0.118953 0.767660
vn -0.629721 0.118953 0.767660
vn -0.629721 0.118953 0.767660
vn 0.587058 0.808325 -0.044431
vn 0.587058 0.808325 -0.044431
vn 0.587058 0.808325 -0.044431
vn 0.216128 0.917376 0.334231
vn 0.216128 0.917376 0.334231
vn 0.216128 0.917376 0.334231
vn -0.026601 -0.998472 -0.048435
vn -0.026601 -0.998472 -0.048435
vn -0.026601 -0.998472 -0.048435
vn -0.019475 -0.997384 -0.069611
vn -0.019475 -0.997384 -0.069611
vn -0.019475 -0.997384 -0.069611
vn 0.009697 -0.998215 -0.058930
vn 0.009697 -0.998215 -0.058930
vn 0.009697 -0.998215 -0.058930
vn -0.539646 0.714464 -0.445335
vn -0.539646 0.714464 -0.445335
vn -0.539646 0.714464 -0.445335
vn -0.539646 0.714464 -0.445335
vn -0.782119 0.043905 0.621581
vn -0.782119 0.043905 0.621581
vn -0.782119 0.043905 0.621581
vn 0.395552 0.918299 0.016279
vn 0.395552 0.918299 0.016279
vn 0.395552 0.918299 0.016279
vn 0.395552 0.918299 0.016279
vn 0.051390 0.434756 -0.899081
vn 0.051390 0.434756 -0.899081
vn 0.051390 0.434756 -0.899081
vn 0.051390 0.434756 -0.899081
vn -0.702417 0.002464 0.711762
vn -0.702417 0.002464 0.711762
vn -0.702417 0.002464 0.711762
vn -0.702417 0.002464 0.711762
vn -0.369852 0.366981 -0.853542
vn -0.369852 0.366981 -0.853542
vn -0.369852 0.366981 -0.853542
vn -0.369852 0.366981 -0.853542
vn 0.455374 0.044383 0.889193
vn 0.455374 0.044383 0.889193
vn 0.455374 0.044383 0.889193
vn 0.455374 0.044383 0.889193
vn 0.960313 -0.173339 -0.218521
vn 0.960313 -0.173339 -0.218521
vn 0.960313 -0.173339 -0.218521
vn 0.960313 -0.173339 -0.218521
# 80 vertex normals

vt 0.852811 0.358180 0.000000
vt 0.552272 0.819354 0.000000
vt 0.492684 0.796681 0.000000
vt 0.562151 0.793453 0.000000
vt 0.841667 0.372180 0.000000
vt 0.789417 0.285879 0.000000
vt 0.603814 0.573633 0.000000
vt 0.540258 0.843708 0.000000
vt 0.002363 0.823220 0.000000
vt 0.002000 0.766863 0.000000
vt 0.149128 0.333855 0.000000
vt 0.148318 0.309654 0.000000
vt 0.652538 0.700633 0.000000
vt 0.843942 0.284723 0.000000
vt 0.660872 0.738800 0.000000
vt 0.969801 0.091438 0.000000
vt 0.897306 0.821625 0.000000
vt 0.630819 0.581002 0.000000
vt 0.902351 0.839989 0.000000
vt 0.623988 0.605476 0.000000
vt 0.855463 0.291968 0.000000
vt 0.796167 0.372412 0.000000
vt 0.783930 0.357789 0.000000
vt 0.765006 0.316431 0.000000
vt 0.657307 0.588753 0.000000
vt 0.660258 0.628997 0.000000
vt 0.075463 0.784332 0.000000
vt 0.064219 0.801467 0.000000
vt 0.938128 0.122611 0.000000
vt 0.956321 0.076393 0.000000
vt 0.933556 0.696241 0.000000
vt 0.990806 0.696156 0.000000
vt 0.494215 0.828300 0.000000
vt 0.588452 0.630072 0.000000
vt 0.170154 0.312569 0.000000
vt 0.870127 0.120463 0.000000
vt 0.901593 0.075394 0.000000
vt 0.578600 0.614836 0.000000
vt 0.970990 0.718572 0.000000
vt 0.087770 0.808221 0.000000
vt 0.064876 0.831407 0.000000
vt 0.590442 0.738105 0.000000
vt 0.578600 0.696156 0.000000
vt 0.853568 0.841465 0.000000
vt 0.850555 0.822178 0.000000
vt 0.669320 0.682797 0.000000
vt 0.667589 0.639029 0.000000
vt 0.158467 0.691006 0.000000
vt 0.714031 0.638594 0.000000
vt 0.740082 0.685184 0.000000
vt 0.370660 0.957031 0.000000
vt 0.304568 0.958242 0.000000
vt 0.302627 0.898565 0.000000
vt 0.348154 0.915315 0.000000
vt 0.166965 0.736240 0.000000
vt 0.125892 0.734216 0.000000
vt 0.109129 0.689085 0.000000
vt 0.003406 0.834535 0.000000
# 58 texture coords

g Stone_3_AO
s 4
f 13/2/1 15/3/2 17/4/3 
s 8
f 1/51/4 9/52/5 16/53/6 3/54/7 
s 16
f 8/9/8 12/10/9 19/27/10 4/28/11 
s 32
f 11/46/12 10/47/13 18/49/14 6/50/15 
s 64
f 2/48/16 7/55/17 14/56/18 5/57/19 
s off
f 1/1/20 7/5/21 12/6/22 
f 12/6/23 8/14/24 9/21/25 
f 2/22/26 10/23/27 12/6/28 
f 3/7/29 13/18/30 14/20/31 
f 4/28/32 15/40/33 16/41/34 
f 5/16/35 17/29/36 18/30/37 
f 6/31/38 15/32/39 19/39/40 
f 12/6/41 7/5/42 2/22/43 
f 12/6/44 10/23/45 11/24/46 
f 9/21/47 1/1/48 12/6/49 
f 13/2/50 3/8/51 16/33/52 15/3/53 
f 15/11/54 4/12/55 19/35/56 
f 15/36/57 6/37/58 18/30/59 17/29/60 
f 17/25/61 5/26/62 14/20/63 13/18/64 
f 9/58/65 8/9/66 4/28/67 16/41/68 
f 3/7/69 14/20/70 7/34/71 1/38/72 
f 12/13/73 11/15/74 6/42/75 19/43/76 
f 10/17/77 2/19/78 5/44/79 18/45/80 
# 11 polygons - 12 triangles

